<?xml version="1.0" encoding="UTF-8"?>
<svg version="1.1" viewBox="0 0 2048 1978" width="1280" height="1280" xmlns="http://www.w3.org/2000/svg">
<path transform="translate(1133,622)" d="m0 0h277l25 2 15 4 22 10 12 8 14 11 10 10 9 12 8 13 8 17 5 16 2 15 1 24v260l-1 19-3 16-7 20-9 17-8 11-14 15-10 9-15 10-16 8-15 5-15 3-12 1h-37l-3-1-11-18-10-15-9-14-10-15-14-22-11-17-21-32-12-19-9-14-10-15-21-32-7-12 4-7 10-12 8-10 10-13 10-12 9-11 11-14 8-10 9-11 11-14 10-12 11-14 9-11 22-28 13-16 11-14 11-13 1-3-149 1-6 5-8 11-9 10-8 11-7 8-7 9-10 12-18 22-11 14-12 14-7 9-10 12-7 9-27 33-11 14-8 10-3 1-1-1-1-203-73-1-1-5 10-19 10-13 13-14 11-9 19-11 19-8 15-4z" fill="#FDAA01"/>
<path transform="translate(609,622)" d="m0 0h237l48 1 19 3 19 7 12 6 16 11 14 12 7 8 11 14 12 23 5 17 3 21v286l-2 18-5 19-6 15-7 12-7 10-9 10-12 12-11 8-10 6-14 7-18 6-10 2-10 1h-121l2-4 11-9 12-11 12-17 12-25 6-21 2-12v-33l-3-17-6-18-8-15-9-12-9-10-11-8-9-6-11-6-5-2-1-4 17-16 8-8 6-8 6-9 8-19 5-21 1-18-3-23-5-17-12-23-13-16-9-8-10-7-21-12-24-7-19-3-11-1-29-1h-164l-1-4 12-23 10-13 12-13 13-11 15-9 19-8 19-5z" fill="#08B483"/>
<path transform="translate(562,992)" d="m0 0h72l29 2 11 3 10 5 9 8 7 13 1 5v16l-3 10-4 6-5 5-5 4-11 5-9 2-13 1h-91l-2-3v-74l1-7z" fill="#08B483"/>
<path transform="translate(1125,1013)" d="m0 0 4 4 9 14 13 21 15 24 13 21 14 22 10 16 11 18 1 4-4 1h-79l-14-1-26-6-2-2v-78l2-8 8-14 20-30z" fill="#FDAA01"/>
<path transform="translate(576,811)" d="m0 0h47l29 2 13 4 8 6 5 8 2 9-1 11-4 9-5 5-7 6-12 4-10 1h-75l-3-2-1-4v-51l2-6z" fill="#08B483"/>
<path transform="translate(805,1225)" d="m0 0h11l11 1 9 4 6 7 1 2v13l-5 8-4 2h-3l2 3 7 3 7 7 2 7v7l-5 10-7 6-4 2-13 2h-28l-1-1-1-14 1-67 1-1zm-4 8-1 4v13l1 10 1 1h22l8-6 3-6-1-7-4-6-6-3zm6 35-6 1v31l3 2h11l12-2 8-4 4-7v-10l-5-6-9-4z" fill="#FEFEFE"/>
<path transform="translate(1093,1225)" d="m0 0h26l14 2 6 3 6 7 2 6v10l-3 9-5 5-5 4-5 1 6 12 10 17 3 7-2 1h-6l-5-5-14-25-3-4-10-1-5 1-1 33-1 1h-8l-1-1v-82zm11 8-2 2v29l1 1h18l8-2 7-6 1-2v-11l-3-6-3-3-8-2z" fill="#FEFEFE"/>
<path transform="translate(1190,1224)" d="m0 0h15l9 4 10 7 7 14 2 8 1 11-2 15-4 10-6 8-10 7-9 2h-14l-8-4-10-8-7-16-2-11v-11l2-10 6-12 9-9zm0 9-8 5-6 8-3 11-1 13 3 14 5 9 8 7 7 2 9-1 8-4 7-8 4-14v-14l-2-11-4-8-8-7-5-2z" fill="#FEFEFE"/>
<path transform="translate(868,1225)" d="m0 0 8 1 1 8v44l2 12 4 7 10 4h10l5-3 4-5 3-8 1-7 1-52h8l1 1v58l-4 11-6 8-9 5-11 2-14-3-8-7-4-5-3-8-1-6v-56z" fill="#FEFEFE"/>
<path transform="translate(1018,1226)" d="m0 0h8l1 1v38l5-3 9-9 10-13 11-13 2-1h8l-2 5-11 13-8 10-1 5 8 14 14 24 5 9-1 3h-7l-6-8-15-26-5-8h-3l-10 13-2 3-1 25-1 1h-6l-2-2z" fill="#FEFEFE"/>
<path transform="translate(968,1224)" d="m0 0 13 1 14 7 1 2-2 4-7-1-8-3-9-1-9 3-4 6 2 10 8 5 24 12 5 5 3 5 1 8-3 11-4 6-9 5-6 1h-14l-10-3-11-7 2-5 5-2 14 7 6 1h8l6-3 4-5 1-2v-8l-3-5-16-8-10-4-10-8-4-11 2-9 4-6 9-6z" fill="#FEFEFE"/>
</svg>
